<svg width="200" height="200" viewBox="0 0 200 200" xmlns="http://www.w3.org/2000/svg">
  <defs>
    <linearGradient id="chiliBottleGradient" x1="0%" y1="0%" x2="100%" y2="100%">
      <stop offset="0%" style="stop-color:#FF6347;stop-opacity:0.8" />
      <stop offset="50%" style="stop-color:#FF4500;stop-opacity:0.8" />
      <stop offset="100%" style="stop-color:#DC143C;stop-opacity:0.8" />
    </linearGradient>
    <linearGradient id="chiliLiquidGradient" x1="0%" y1="0%" x2="100%" y2="100%">
      <stop offset="0%" style="stop-color:#FF4500;stop-opacity:0.9" />
      <stop offset="100%" style="stop-color:#B22222;stop-opacity:0.9" />
    </linearGradient>
  </defs>
  <!-- ボトル本体 -->
  <rect x="70" y="50" width="60" height="130" rx="8" ry="8" fill="url(#chiliBottleGradient)" stroke="#8B0000" stroke-width="2"/>
  <!-- ボトルネック -->
  <rect x="85" y="30" width="30" height="25" fill="url(#chiliBottleGradient)" stroke="#8B0000" stroke-width="2"/>
  <!-- キャップ -->
  <rect x="82" y="20" width="36" height="15" rx="3" ry="3" fill="#FFD700" stroke="#DAA520" stroke-width="1"/>
  <!-- 液体 -->
  <rect x="75" y="60" width="50" height="110" rx="5" ry="5" fill="url(#chiliLiquidGradient)"/>
  <!-- ラベル -->
  <rect x="75" y="80" width="50" height="70" fill="#FFFACD" stroke="#FF4500" stroke-width="1" opacity="0.9"/>
  <!-- チリのイラスト -->
  <ellipse cx="100" cy="100" rx="8" ry="15" fill="#FF0000" transform="rotate(15 100 100)"/>
  <ellipse cx="100" cy="120" rx="6" ry="12" fill="#FF0000" transform="rotate(-10 100 120)"/>
  <path d="M 95 95 Q 90 90 95 85" stroke="#228B22" stroke-width="2" fill="none"/>
  <!-- ラベルテキスト風 -->
  <line x1="80" y1="130" x2="120" y2="130" stroke="#FF4500" stroke-width="2"/>
  <line x1="85" y1="140" x2="115" y2="140" stroke="#FF4500" stroke-width="1"/>
</svg>