<svg width="200" height="200" viewBox="0 0 200 200" xmlns="http://www.w3.org/2000/svg">
  <defs>
    <linearGradient id="cilantroGradient" x1="0%" y1="0%" x2="100%" y2="100%">
      <stop offset="0%" style="stop-color:#ADFF2F;stop-opacity:1" />
      <stop offset="50%" style="stop-color:#32CD32;stop-opacity:1" />
      <stop offset="100%" style="stop-color:#228B22;stop-opacity:1" />
    </linearGradient>
  </defs>
  <!-- 茎 -->
  <line x1="100" y1="180" x2="100" y2="120" stroke="#228B22" stroke-width="3"/>
  <line x1="85" y1="170" x2="85" y2="110" stroke="#228B22" stroke-width="2"/>
  <line x1="115" y1="175" x2="115" y2="115" stroke="#228B22" stroke-width="2"/>
  <!-- パクチーの葉 -->
  <path d="M 100 120 Q 90 110 85 100 Q 80 90 85 80 Q 90 85 95 90 Q 100 95 105 90 Q 110 85 115 80 Q 120 90 115 100 Q 110 110 100 120" fill="url(#cilantroGradient)"/>
  <path d="M 85 110 Q 75 100 70 90 Q 65 80 70 70 Q 75 75 80 80 Q 85 85 90 80 Q 95 75 100 70 Q 105 80 100 90 Q 95 100 85 110" fill="url(#cilantroGradient)"/>
  <path d="M 115 115 Q 125 105 130 95 Q 135 85 130 75 Q 125 80 120 85 Q 115 90 110 85 Q 105 80 100 75 Q 95 85 100 95 Q 105 105 115 115" fill="url(#cilantroGradient)"/>
  <!-- 細かい葉の切れ込み -->
  <path d="M 95 90 L 90 85 M 105 90 L 110 85 M 100 95 L 100 90" stroke="#228B22" stroke-width="1" fill="none"/>
</svg>