<svg width="200" height="200" viewBox="0 0 200 200" xmlns="http://www.w3.org/2000/svg">
  <defs>
    <linearGradient id="coconutGradient" x1="0%" y1="0%" x2="100%" y2="100%">
      <stop offset="0%" style="stop-color:#8B4513;stop-opacity:1" />
      <stop offset="50%" style="stop-color:#A0522D;stop-opacity:1" />
      <stop offset="100%" style="stop-color:#654321;stop-opacity:1" />
    </linearGradient>
    <linearGradient id="waterGradient" x1="0%" y1="0%" x2="100%" y2="100%">
      <stop offset="0%" style="stop-color:#F0F8FF;stop-opacity:0.8" />
      <stop offset="50%" style="stop-color:#E6F3FF;stop-opacity:0.8" />
      <stop offset="100%" style="stop-color:#B0E0E6;stop-opacity:0.8" />
    </linearGradient>
  </defs>
  <!-- ココナッツ本体 -->
  <ellipse cx="100" cy="120" rx="45" ry="55" fill="url(#coconutGradient)" stroke="#654321" stroke-width="2"/>
  <!-- ココナッツの繊維模様 -->
  <path d="M 70 90 Q 80 100 70 110 Q 80 120 70 130 Q 80 140 70 150" stroke="#654321" stroke-width="1" fill="none" opacity="0.7"/>
  <path d="M 130 90 Q 120 100 130 110 Q 120 120 130 130 Q 120 140 130 150" stroke="#654321" stroke-width="1" fill="none" opacity="0.7"/>
  <path d="M 85 80 Q 95 90 85 100 Q 95 110 85 120" stroke="#654321" stroke-width="1" fill="none" opacity="0.5"/>
  <path d="M 115 80 Q 105 90 115 100 Q 105 110 115 120" stroke="#654321" stroke-width="1" fill="none" opacity="0.5"/>
  <!-- 開口部 -->
  <ellipse cx="100" cy="70" rx="15" ry="8" fill="#2F4F4F" stroke="#000" stroke-width="1"/>
  <!-- ココナッツウォーター -->
  <ellipse cx="100" cy="75" rx="12" ry="6" fill="url(#waterGradient)"/>
  <!-- ストロー -->
  <rect x="95" y="30" width="4" height="50" fill="#FFD700" stroke="#DAA520" stroke-width="1"/>
  <rect x="93" y="25" width="8" height="8" rx="2" ry="2" fill="#FF6347"/>
  <!-- ココナッツの目 -->
  <circle cx="90" cy="100" r="3" fill="#2F4F4F"/>
  <circle cx="110" cy="105" r="3" fill="#2F4F4F"/>
  <ellipse cx="100" cy="115" rx="4" ry="2" fill="#2F4F4F"/>
  <!-- 水滴 -->
  <circle cx="85" cy="60" r="2" fill="url(#waterGradient)" opacity="0.8"/>
  <circle cx="115" cy="55" r="1.5" fill="url(#waterGradient)" opacity="0.8"/>
</svg>