<svg width="200" height="200" viewBox="0 0 200 200" xmlns="http://www.w3.org/2000/svg">
  <defs>
    <linearGradient id="dragonGradient" x1="0%" y1="0%" x2="100%" y2="100%">
      <stop offset="0%" style="stop-color:#FF69B4;stop-opacity:1" />
      <stop offset="50%" style="stop-color:#FF1493;stop-opacity:1" />
      <stop offset="100%" style="stop-color:#DC143C;stop-opacity:1" />
    </linearGradient>
  </defs>
  <ellipse cx="100" cy="120" rx="50" ry="65" fill="url(#dragonGradient)"/>
  <path d="M 70 80 Q 65 70 70 65 Q 75 70 80 65 Q 85 70 90 65 Q 95 70 100 65 Q 105 70 110 65 Q 115 70 120 65 Q 125 70 130 65 Q 135 70 130 80" fill="#32CD32" stroke="#228B22" stroke-width="1"/>
  <circle cx="85" cy="100" r="2" fill="#000"/>
  <circle cx="95" cy="110" r="2" fill="#000"/>
  <circle cx="105" cy="105" r="2" fill="#000"/>
  <circle cx="115" cy="115" r="2" fill="#000"/>
  <circle cx="90" cy="130" r="2" fill="#000"/>
  <circle cx="110" cy="135" r="2" fill="#000"/>
  <circle cx="100" cy="145" r="2" fill="#000"/>
</svg>