<svg width="200" height="200" viewBox="0 0 200 200" xmlns="http://www.w3.org/2000/svg">
  <defs>
    <linearGradient id="dumplingGradient" x1="0%" y1="0%" x2="100%" y2="100%">
      <stop offset="0%" style="stop-color:#F5DEB3;stop-opacity:1" />
      <stop offset="50%" style="stop-color:#DEB887;stop-opacity:1" />
      <stop offset="100%" style="stop-color:#D2B48C;stop-opacity:1" />
    </linearGradient>
  </defs>
  <!-- 餃子1 -->
  <ellipse cx="80" cy="100" rx="25" ry="15" fill="url(#dumplingGradient)" stroke="#CD853F" stroke-width="1"/>
  <path d="M 55 100 Q 65 90 75 95 Q 85 90 95 95 Q 105 90 105 100" stroke="#8B4513" stroke-width="2" fill="none"/>
  <!-- 餃子2 -->
  <ellipse cx="120" cy="120" rx="25" ry="15" fill="url(#dumplingGradient)" stroke="#CD853F" stroke-width="1"/>
  <path d="M 95 120 Q 105 110 115 115 Q 125 110 135 115 Q 145 110 145 120" stroke="#8B4513" stroke-width="2" fill="none"/>
  <!-- 餃子3 -->
  <ellipse cx="100" cy="80" rx="25" ry="15" fill="url(#dumplingGradient)" stroke="#CD853F" stroke-width="1"/>
  <path d="M 75 80 Q 85 70 95 75 Q 105 70 115 75 Q 125 70 125 80" stroke="#8B4513" stroke-width="2" fill="none"/>
  <!-- 餃子4 -->
  <ellipse cx="90" cy="140" rx="25" ry="15" fill="url(#dumplingGradient)" stroke="#CD853F" stroke-width="1"/>
  <path d="M 65 140 Q 75 130 85 135 Q 95 130 105 135 Q 115 130 115 140" stroke="#8B4513" stroke-width="2" fill="none"/>
  <!-- 餃子5 -->
  <ellipse cx="110" cy="160" rx="25" ry="15" fill="url(#dumplingGradient)" stroke="#CD853F" stroke-width="1"/>
  <path d="M 85 160 Q 95 150 105 155 Q 115 150 125 155 Q 135 150 135 160" stroke="#8B4513" stroke-width="2" fill="none"/>
  <!-- 蒸気 -->
  <path d="M 70 70 Q 75 60 70 50" stroke="#E0E0E0" stroke-width="2" fill="none" opacity="0.7"/>
  <path d="M 130 90 Q 135 80 130 70" stroke="#E0E0E0" stroke-width="2" fill="none" opacity="0.7"/>
  <path d="M 100 50 Q 105 40 100 30" stroke="#E0E0E0" stroke-width="2" fill="none" opacity="0.7"/>
</svg>