<svg width="200" height="200" viewBox="0 0 200 200" xmlns="http://www.w3.org/2000/svg">
  <defs>
    <linearGradient id="noodle-gradient" x1="0%" y1="0%" x2="100%" y2="100%">
      <stop offset="0%" style="stop-color:#F5F5DC;stop-opacity:1" />
      <stop offset="100%" style="stop-color:#DDBF94;stop-opacity:1" />
    </linearGradient>
    <radialGradient id="bowl-gradient" cx="50%" cy="30%" r="70%">
      <stop offset="0%" style="stop-color:#FFFFFF;stop-opacity:1" />
      <stop offset="100%" style="stop-color:#E0E0E0;stop-opacity:1" />
    </radialGradient>
  </defs>
  
  <!-- Background -->
  <rect width="200" height="200" fill="#F8F8F8"/>
  
  <!-- Bowl -->
  <ellipse cx="100" cy="160" rx="80" ry="25" fill="#D0D0D0"/>
  <ellipse cx="100" cy="155" rx="75" ry="20" fill="url(#bowl-gradient)" stroke="#C0C0C0" stroke-width="2"/>
  
  <!-- Broth -->
  <ellipse cx="100" cy="155" rx="70" ry="18" fill="#DEB887" opacity="0.8"/>
  
  <!-- Pho noodles -->
  <g transform="translate(100,155)">
    <!-- Noodle strands -->
    <path d="M-50,-10 Q-30,-15 -10,-8 Q10,-12 30,-5 Q50,-8 60,-3" 
          fill="none" stroke="url(#noodle-gradient)" stroke-width="3" opacity="0.9"/>
    <path d="M-55,-5 Q-35,-10 -15,-3 Q5,-7 25,0 Q45,-3 55,2" 
          fill="none" stroke="url(#noodle-gradient)" stroke-width="3" opacity="0.9"/>
    <path d="M-45,0 Q-25,-5 -5,2 Q15,-2 35,5 Q55,2 65,7" 
          fill="none" stroke="url(#noodle-gradient)" stroke-width="3" opacity="0.9"/>
    <path d="M-60,5 Q-40,0 -20,7 Q0,3 20,10 Q40,7 50,12" 
          fill="none" stroke="url(#noodle-gradient)" stroke-width="3" opacity="0.9"/>
    <path d="M-50,10 Q-30,5 -10,12 Q10,8 30,15 Q50,12 60,17" 
          fill="none" stroke="url(#noodle-gradient)" stroke-width="3" opacity="0.9"/>
    
    <!-- More noodle layers -->
    <path d="M-40,-8 Q-20,-13 0,-6 Q20,-10 40,-3 Q60,-6 70,-1" 
          fill="none" stroke="#F0E68C" stroke-width="2" opacity="0.7"/>
    <path d="M-45,3 Q-25,-2 -5,5 Q15,1 35,8 Q55,5 65,10" 
          fill="none" stroke="#F0E68C" stroke-width="2" opacity="0.7"/>
    <path d="M-55,8 Q-35,3 -15,10 Q5,6 25,13 Q45,10 55,15" 
          fill="none" stroke="#F0E68C" stroke-width="2" opacity="0.7"/>
  </g>
  
  <!-- Garnishes -->
  <!-- Bean sprouts -->
  <g transform="translate(80,140)">
    <line x1="0" y1="0" x2="8" y2="-5" stroke="#FFFFFF" stroke-width="1"/>
    <line x1="5" y1="2" x2="13" y2="-3" stroke="#FFFFFF" stroke-width="1"/>
    <line x1="-3" y1="3" x2="5" y2="-2" stroke="#FFFFFF" stroke-width="1"/>
  </g>
  
  <!-- Herbs -->
  <g transform="translate(120,145)">
    <ellipse cx="0" cy="0" rx="3" ry="1" fill="#90EE90"/>
    <ellipse cx="5" cy="-2" rx="2" ry="1" fill="#90EE90"/>
    <ellipse cx="-3" cy="1" rx="2" ry="1" fill="#90EE90"/>
  </g>
  
  <!-- Chopsticks -->
  <g transform="translate(140,100) rotate(30)">
    <rect x="0" y="0" width="60" height="2" fill="#D2691E" rx="1"/>
    <rect x="0" y="4" width="60" height="2" fill="#D2691E" rx="1"/>
  </g>
  
  <!-- Steam -->
  <g opacity="0.6">
    <path d="M70,120 Q75,110 70,100 Q65,90 70,80" fill="none" stroke="#E0E0E0" stroke-width="2"/>
    <path d="M100,115 Q105,105 100,95 Q95,85 100,75" fill="none" stroke="#E0E0E0" stroke-width="2"/>
    <path d="M130,120 Q135,110 130,100 Q125,90 130,80" fill="none" stroke="#E0E0E0" stroke-width="2"/>
  </g>
</svg>