<svg width="200" height="200" viewBox="0 0 200 200" xmlns="http://www.w3.org/2000/svg">
  <defs>
    <linearGradient id="ricePaperGradient" x1="0%" y1="0%" x2="100%" y2="100%">
      <stop offset="0%" style="stop-color:#F5F5DC;stop-opacity:1" />
      <stop offset="50%" style="stop-color:#DEB887;stop-opacity:1" />
      <stop offset="100%" style="stop-color:#D2B48C;stop-opacity:1" />
    </linearGradient>
  </defs>
  <!-- ライスペーパー1 -->
  <circle cx="80" cy="90" r="30" fill="url(#ricePaperGradient)" stroke="#CD853F" stroke-width="1" opacity="0.9"/>
  <circle cx="80" cy="90" r="25" fill="none" stroke="#8B4513" stroke-width="1" opacity="0.5"/>
  <circle cx="80" cy="90" r="20" fill="none" stroke="#8B4513" stroke-width="1" opacity="0.3"/>
  <!-- ライスペーパー2 -->
  <circle cx="120" cy="110" r="30" fill="url(#ricePaperGradient)" stroke="#CD853F" stroke-width="1" opacity="0.9"/>
  <circle cx="120" cy="110" r="25" fill="none" stroke="#8B4513" stroke-width="1" opacity="0.5"/>
  <circle cx="120" cy="110" r="20" fill="none" stroke="#8B4513" stroke-width="1" opacity="0.3"/>
  <!-- ライスペーパー3（重なり） -->
  <circle cx="100" cy="130" r="30" fill="url(#ricePaperGradient)" stroke="#CD853F" stroke-width="1" opacity="0.8"/>
  <circle cx="100" cy="130" r="25" fill="none" stroke="#8B4513" stroke-width="1" opacity="0.5"/>
  <circle cx="100" cy="130" r="20" fill="none" stroke="#8B4513" stroke-width="1" opacity="0.3"/>
  <!-- 焼き色の斑点 -->
  <circle cx="75" cy="85" r="2" fill="#8B4513" opacity="0.6"/>
  <circle cx="85" cy="95" r="1.5" fill="#8B4513" opacity="0.6"/>
  <circle cx="115" cy="105" r="2" fill="#8B4513" opacity="0.6"/>
  <circle cx="125" cy="115" r="1.5" fill="#8B4513" opacity="0.6"/>
  <circle cx="95" cy="125" r="2" fill="#8B4513" opacity="0.6"/>
  <circle cx="105" cy="135" r="1.5" fill="#8B4513" opacity="0.6"/>
  <!-- 香ばしさを表現する線 -->
  <path d="M 60 70 Q 65 60 60 50" stroke="#DEB887" stroke-width="1" fill="none" opacity="0.7"/>
  <path d="M 140 90 Q 145 80 140 70" stroke="#DEB887" stroke-width="1" fill="none" opacity="0.7"/>
  <path d="M 120 150 Q 125 140 120 130" stroke="#DEB887" stroke-width="1" fill="none" opacity="0.7"/>
</svg>